<?xml version="1.0" encoding="utf-8"?>
<!-- Generator: Adobe Illustrator 20.1.0, SVG Export Plug-In . SVG Version: 6.00 Build 0)  -->
<svg version="1.1" id="Layer_1" xmlns="http://www.w3.org/2000/svg" xmlns:xlink="http://www.w3.org/1999/xlink" x="0px" y="0px"
	 viewBox="0 0 105.4 105.4" style="enable-background:new 0 0 105.4 105.4;" xml:space="preserve">
<style type="text/css">
	.st0{fill:#EDABB0;}
</style>
<title>Artboard 1</title>
<g>
	<path class="st0" d="M52.7,0C23.6,0,0,23.6,0,52.7s23.6,52.7,52.7,52.7c29.1,0,52.7-23.6,52.7-52.7C105.4,23.6,81.8,0,52.7,0z
		 M52.7,105.2c-29,0-52.5-23.5-52.5-52.5S23.7,0.2,52.7,0.2s52.5,23.5,52.5,52.5C105.2,81.7,81.7,105.2,52.7,105.2z"/>
	<path class="st0" d="M52.7,15.2C32,15.2,15.2,32,15.2,52.7S32,90.2,52.7,90.2s37.5-16.8,37.5-37.5c0,0,0,0,0,0
		C90.1,32,73.4,15.2,52.7,15.2z"/>
	<path class="st0" d="M52.7,7.8C27.9,7.8,7.8,27.9,7.8,52.7s20.1,44.9,44.9,44.9c24.8,0,44.9-20.1,44.9-44.9
		C97.6,27.9,77.5,7.8,52.7,7.8z M52.7,96.6c-24.2,0-43.9-19.7-43.9-43.9c0-24.2,19.7-43.9,43.9-43.9c24.2,0,43.9,19.6,43.9,43.9
		C96.6,76.9,76.9,96.6,52.7,96.6z"/>
</g>
</svg>
